<?xml version="1.0" encoding="utf-8"?>
<!-- Generator: Adobe Illustrator 22.0.1, SVG Export Plug-In . SVG Version: 6.00 Build 0)  -->
<svg version="1.1" id="Layer_1" xmlns="http://www.w3.org/2000/svg" xmlns:xlink="http://www.w3.org/1999/xlink" x="0px" y="0px"
	 viewBox="0 0 332 74" style="enable-background:new 0 0 332 74;" xml:space="preserve">
<style type="text/css">
	.st0{fill:#F79727;}
	.st1{fill:#0047B6;}
	.st2{fill:#91989E;}
</style>
<g>
	<g>
		<polygon class="st0" points="141.6,43.1 66.6,43.1 66.6,39.9 141.6,39.9 141.6,43.1 		"/>
		<path class="st1" d="M68.8,26.2c-0.8-0.5-1.4-0.9-1.8-1.4c-0.5-0.6-0.7-1.4-0.7-2.3c0-1.5,0.5-2.7,1.5-3.6
			c1.1-0.9,2.6-1.4,4.6-1.4c1,0,2,0,2.9,0.1c1,0.1,2,0.2,3,0.3L77.8,21h-5.2c-0.8,0-1.4,0.1-1.7,0.3c-0.3,0.2-0.5,0.5-0.5,0.9
			c0,0.7,0.8,1.3,2.3,1.6c2.3,0.6,3.6,0.9,4,1.1c0.7,0.4,1.2,0.8,1.6,1.3c0.5,0.7,0.8,1.7,0.8,2.8c0,0.3,0,0.6-0.1,0.9
			c-0.1,1.3-0.6,2.2-1.6,2.9c-0.8,0.6-1.8,0.9-3.1,0.9h-7.6v-5.4h3.4v2.3h2.7h0.5c0.7,0,1.2-0.1,1.5-0.2c0.4-0.2,0.6-0.6,0.6-1.2
			c0.1-0.8-0.7-1.3-2.2-1.7C70.7,26.9,69.3,26.5,68.8,26.2"/>
		<path class="st1" d="M93.7,33.7h-3.2l-0.2-3c-0.5,1.1-1.1,1.9-1.7,2.4c-0.7,0.6-1.5,0.9-2.5,0.9c-1.4,0-2.6-0.5-3.6-1.3
			c-1-0.9-1.5-2.2-1.5-3.8V18.1h3.6v9.7c0,0.9,0.2,1.6,0.5,2.2c0.4,0.7,1,1,1.8,1c0.9,0,1.6-0.4,2.2-1.3c0.6-0.8,0.9-1.8,0.9-2.9
			v-8.7h3.6V33.7z"/>
		<path class="st1" d="M96.3,21.1l-0.9-1.8c0.6-0.4,1.2-0.8,1.8-1c1-0.4,2-0.6,3-0.6c1.4,0,2.3,0.4,2.9,1.2c0.3,0.5,0.5,1.1,0.5,1.9
			V21v12.7h-3.6V23.1v-0.4c0-0.1,0-0.3,0-0.4c0-0.6-0.1-1.1-0.2-1.3c-0.2-0.4-0.7-0.6-1.3-0.6c-0.4,0-0.8,0.1-1.3,0.3
			C96.8,20.8,96.5,20.9,96.3,21.1"/>
		<path class="st1" d="M109.2,26c0.3-0.5,0.8-0.9,1.4-1.2c0.6-0.3,1.2-0.4,1.8-0.4v3c-0.2,0-0.4-0.1-0.6-0.1c-0.8,0-1.4,0.3-1.9,1
			c-0.5,0.7-0.7,1.4-0.7,2.3v3h-3.6V23.3c0-1.8,0.4-3.2,1.3-4.1c1-1.1,2.7-1.6,5.1-1.6c2.3,0,3.9,0.5,4.9,1.6
			c0.9,0.9,1.3,2.3,1.3,4.1v10.4h-3.6V23.2c0-0.9-0.2-1.6-0.7-2.1c-0.5-0.5-1.1-0.7-1.9-0.7c-0.8,0-1.5,0.2-2,0.7
			c-0.5,0.5-0.8,1.2-0.8,2.1V26z"/>
		<path class="st1" d="M120.2,21.1l-0.9-1.8c0.6-0.4,1.2-0.8,1.8-1c1-0.4,2-0.6,3-0.6c1.4,0,2.3,0.4,2.8,1.2
			c0.3,0.5,0.5,1.1,0.5,1.9V21v12.7h-3.6V23.1v-0.4c0-0.1,0-0.3,0-0.4c0-0.6-0.1-1.1-0.2-1.3c-0.2-0.4-0.7-0.6-1.3-0.6
			c-0.4,0-0.8,0.1-1.3,0.3C120.7,20.8,120.5,20.9,120.2,21.1"/>
		<path class="st1" d="M138.3,22.3c-0.1-0.5-0.4-1-0.7-1.3c-0.4-0.3-1-0.5-1.8-0.5c-0.9,0-1.6,0.2-2,0.5c-0.3,0.3-0.5,0.6-0.5,1.1
			c0,0.7,1.1,1.3,3.5,1.9c1.4,0.3,2.5,0.6,3.1,1c0.6,0.3,1.1,0.8,1.6,1.5c0.5,0.7,0.7,1.5,0.7,2.3c0,1.7-0.6,3-1.7,3.9
			c-1.1,0.9-2.7,1.4-4.6,1.4c-1.9,0-3.4-0.3-4.5-1c-0.9-0.5-1.5-1.2-1.9-2c-0.3-0.5-0.4-1-0.4-1.4l3.4-0.6c0.1,0.7,0.5,1.2,1.1,1.6
			c0.6,0.4,1.4,0.5,2.3,0.5c0.7,0,1.3-0.1,1.7-0.3c0.5-0.3,0.8-0.7,0.8-1.3c0-0.8-0.8-1.4-2.3-1.7c-2.2-0.5-3.5-0.9-4-1.2
			c-0.7-0.4-1.2-0.9-1.6-1.5c-0.4-0.6-0.6-1.3-0.6-2c0-1.6,0.5-3,1.5-3.9c1-0.9,2.5-1.4,4.4-1.4c1.4,0,2.6,0.3,3.6,1
			c1.1,0.7,1.8,1.7,2.1,3L138.3,22.3z"/>
		<path class="st1" d="M163,40.9V11.3c0.8-5.9,9.7-4,9.7-4V5.4c-6.3-2.7-16.6-0.5-21.1-0.5c-4.5,0-4.4-2.5-4.4-2.5l-5.7,2.5
			c0,0,1,3.6,7,3.6c7,0,10-1.9,13.6-1.3c0,0-5.1,1.7-5.1,6.5v27.1c0,2.4,1.7,2.3,1.7,2.3h6.4C163.1,43.1,163,40.9,163,40.9"/>
		<path class="st1" d="M224.3,40.9c0,0,0-18.6,0-20.5c0-2.4-1.7-2.3-1.7-2.3h-6.4c2,0,2.1,2.2,2.1,2.2s0,18.6,0,20.5
			c0,2.4,1.7,2.3,1.7,2.3h6.4C224.4,43.1,224.3,40.9,224.3,40.9"/>
		<path class="st1" d="M300.7,40.9V28.7v-2.8c0,0,0-8.1-10.5-8.1c-10.6,0-12.7,7.5-12.7,13.9c0,6.4,4,11.7,9.9,11.7c4,0,5.1-2,5.1-2
			l-1.2-3.2c0,0-0.4,1.2-3,1.2c-2.6,0-4.8-3.1-4.8-8c0-4.1,1.1-9.6,6.6-9.6c5,0,4.5,5.1,4.5,6.9v12.1c0,2.4,1.7,2.3,1.7,2.3h6.4
			C300.8,43.1,300.7,40.9,300.7,40.9"/>
		<path class="st1" d="M327.2,40.9V28.7v-2.8l0-8.1h-5.9l-2.7,2.2c0,0-0.6-2.2-4.7-2.2c-11.1,0-9.9,13.9-9.9,13.9
			c0,6.4,4,11.7,9.9,11.7c4,0,5.1-2,5.1-2l-1.2-3.2c0,0-0.4,1.2-3,1.2c-2.6,0-4.8-3.1-4.8-8c0,0-0.1-9.5,5-9.5
			c2.2,0,3.2,2.2,3.2,2.2l3-1.8v18.4c0,2.4,1.7,2.3,1.7,2.3h6.4C327.3,43.1,327.2,40.9,327.2,40.9"/>
		<path class="st1" d="M181.8,17.7c-3.7,0-6.4,2.2-7.6,3.5v-0.8c0-2.4-1.7-2.3-1.7-2.3h-6.4c2,0,2.1,2.2,2.1,2.2v22.8h6V30.6
			c0-7.2,4.9-8.8,7-8.8c2.2,0,2.1,3.2,2.1,3.2v18.1h6V25C189.3,20.4,187.3,17.7,181.8,17.7"/>
		<path class="st1" d="M207.3,39.6h-4.6c0,0-4.5-0.1-4.5-4.2c0-4,3.3-5.1,5.1-5.1h2.1v-3.5h-2.1c0,0-4.7,0.3-4.7-3
			c0-3.3,5.8-2,6.7-0.9l-0.7-4.4c0,0-1.1-0.9-4.2-0.9c-3.1,0-7.1,1.2-7.1,5.9c0,5.2,4.6,5.3,4.6,5.3s-5.7,0.6-5.7,6.8
			c0,6.2,5.5,7.4,7.3,7.4h13.6v-25h-5.9V39.6z"/>
		<path class="st1" d="M249.5,40.9V26.2c0-0.6,0.8-8.5-10.4-8.5c-10.5,0-10.8,6.4-10.8,8.2v14.8c0,2.4,1.7,2.3,1.7,2.3h6.4
			c-2,0-2.1-2.2-2.1-2.2v-2.6c0.6-6.3,5.6-5.2,5.6-5.2l-0.5-4.8c-2.8,0-4.3,2-5,3.3v-5c0,0-0.1-4.4,4.8-4.4c4.8,0,4.5,4.8,4.5,4.8
			v13.8c0,2.4,1.7,2.3,1.7,2.3h6.4C249.6,43.1,249.5,40.9,249.5,40.9"/>
		<path class="st1" d="M259.9,24.7c0-1.1,0.6-2.5,4.5-2.5c4,0,4.3,2.8,4.3,2.8l5.9-0.9c0,0-1-6.3-10-6.3c-9,0-10.8,4.1-10.8,8.3
			c0,2.7,2.3,6,8.9,7c6.6,1,5.9,3.1,5.9,3.1s0.2,2.5-4.9,2.5c-5.1,0-5.4-3.3-5.4-3.3l-5.8,0.9c1.7,6.3,7.7,7,11.3,7
			c3.6,0,11.4-0.3,11.4-7.8C275.1,27.1,259.9,29.1,259.9,24.7"/>
		<path class="st1" d="M279.8,12.2H300V8.4h-19l-1.6,2.7C279.3,11.1,278.6,12.2,279.8,12.2"/>
		<rect x="260.4" y="59.7" class="st1" width="2" height="8.3"/>
		<path class="st1" d="M272.2,65.2c0,0.4,0,0.9-0.1,1.2c-0.1,0.4-0.2,0.7-0.3,1c-0.2,0.3-0.4,0.5-0.7,0.6c-0.3,0.1-0.7,0.2-1.2,0.2
			c-0.3,0-0.7-0.1-1-0.3c-0.4-0.2-0.7-0.5-0.9-0.7c-0.2,0.3-0.4,0.6-0.8,0.8c-0.3,0.2-0.7,0.3-1,0.3c-0.5,0-0.9-0.1-1.3-0.2
			c-0.3-0.1-0.6-0.4-0.7-0.6c-0.2-0.3-0.3-0.6-0.3-1c-0.1-0.4-0.1-0.8-0.1-1.2v-5.5h2V66c0,0,0,0.1,0,0.2c0,0.1,0,0.2,0.1,0.2
			c0,0.1,0.1,0.1,0.2,0.2c0.1,0.1,0.2,0.1,0.4,0.1c0.1,0,0.2,0,0.3-0.1c0.1-0.1,0.1-0.1,0.2-0.2c0-0.1,0.1-0.1,0.1-0.2
			c0-0.1,0-0.1,0-0.2v-6.3h2V66c0,0,0,0.1,0,0.2c0,0.1,0,0.2,0.1,0.2c0,0.1,0.1,0.1,0.2,0.2c0.1,0.1,0.2,0.1,0.4,0.1
			c0.1,0,0.2,0,0.3-0.1c0.1-0.1,0.1-0.1,0.2-0.2c0-0.1,0-0.1,0.1-0.2c0-0.1,0-0.1,0-0.2v-6.3h2V65.2z"/>
		<path class="st1" d="M264.9,58l0.6-1.3h3.9v-1.2h0.8c0.1,0,0.2,0,0.2,0.1c0,0,0,0.1,0,0.2c0,0.1,0,0.2,0,0.3c0,0.1,0,0.2,0,0.3
			c0,0.1,0,0.2,0.1,0.2c0,0.1,0.1,0.1,0.2,0.1c0.1,0,0.2,0,0.2-0.1c0-0.1,0.1-0.2,0.1-0.2c0-0.1,0-0.2,0-0.3c0-0.1,0-0.2,0-0.3
			c0-0.1,0-0.1,0-0.2c0-0.1,0.1-0.1,0.2-0.1h0.8V58H264.9z"/>
		<rect x="270.2" y="52.7" class="st1" width="2" height="2.4"/>
		<path class="st1" d="M281.4,63.9c0,0.6-0.1,1.2-0.3,1.7c-0.2,0.5-0.4,1-0.8,1.4c-0.4,0.4-0.8,0.7-1.3,0.9
			c-0.5,0.2-1.1,0.3-1.8,0.3c-0.7,0-1.3-0.1-1.8-0.4c-0.5-0.3-0.9-0.6-1.2-1.1c-0.3-0.4-0.5-1-0.7-1.5c-0.1-0.6-0.2-1.2-0.1-1.9h3.9
			v1.3h-1.9c0,0.6,0.2,1.2,0.5,1.6c0.4,0.4,0.9,0.6,1.4,0.6c0.7,0,1.2-0.3,1.5-0.8c0.3-0.5,0.4-1.1,0.4-2c0-0.4,0-0.8-0.1-1.2
			c-0.1-0.4-0.2-0.7-0.4-0.9c-0.2-0.3-0.4-0.5-0.6-0.6c-0.3-0.2-0.6-0.2-1-0.2c-0.4,0-0.8,0.1-1.1,0.4c-0.3,0.2-0.6,0.6-0.7,1
			l-1.9-0.3c0.1-0.3,0.3-0.7,0.5-1c0.2-0.3,0.5-0.6,0.8-0.9c0.3-0.2,0.7-0.4,1.1-0.6c0.4-0.2,0.9-0.2,1.5-0.2c0.7,0,1.3,0.1,1.8,0.3
			c0.5,0.2,0.9,0.5,1.3,0.9c0.3,0.4,0.6,0.8,0.8,1.4C281.3,62.7,281.4,63.3,281.4,63.9"/>
		<path class="st1" d="M289.4,65.4c0,0.9-0.3,1.6-1,2.1c-0.6,0.5-1.5,0.7-2.6,0.7c-0.6,0-1.1-0.1-1.5-0.2c-0.4-0.1-0.8-0.2-1.1-0.4
			c-0.3-0.2-0.5-0.3-0.7-0.5c-0.2-0.2-0.3-0.4-0.4-0.6c-0.1-0.2-0.1-0.3-0.2-0.5c0-0.1,0-0.2,0-0.3l1.9-0.3c0.1,0.4,0.3,0.7,0.6,0.9
			c0.4,0.2,0.8,0.3,1.3,0.3c0.2,0,0.3,0,0.5,0c0.2,0,0.3-0.1,0.5-0.2c0.1-0.1,0.3-0.2,0.3-0.3c0.1-0.1,0.1-0.2,0.1-0.4
			c0-0.3-0.1-0.5-0.4-0.6c-0.2-0.1-0.6-0.2-0.9-0.3c-0.4-0.1-0.8-0.2-1.2-0.2c-0.4-0.1-0.8-0.2-1.1-0.4c-0.4-0.2-0.7-0.5-0.9-0.8
			c-0.2-0.3-0.4-0.7-0.4-1.1c0-0.9,0.3-1.6,0.8-2.1c0.6-0.5,1.4-0.8,2.5-0.8c0.4,0,0.7,0,1.1,0.1c0.3,0.1,0.7,0.2,1,0.4
			c0.3,0.2,0.5,0.4,0.8,0.7c0.2,0.3,0.4,0.6,0.5,0.9l-1.9,0.3c-0.1-0.3-0.2-0.5-0.4-0.7c-0.2-0.2-0.6-0.3-1-0.3
			c-0.6,0-1,0.1-1.2,0.3c-0.2,0.2-0.3,0.4-0.3,0.6c0,0.2,0.1,0.4,0.4,0.6c0.3,0.1,0.6,0.2,1,0.3c0.4,0.1,0.8,0.2,1.2,0.2
			c0.4,0.1,0.8,0.2,1.1,0.4c0.3,0.2,0.6,0.4,0.9,0.8C289.3,64.6,289.4,65,289.4,65.4"/>
		<path class="st1" d="M292.5,68.1v-6.3c0-0.1,0-0.2,0-0.3c0-0.1-0.1-0.2-0.1-0.3c-0.1-0.1-0.2-0.1-0.3-0.2
			c-0.1-0.1-0.3-0.1-0.5-0.1c-0.3,0-0.5,0-0.7,0.1c-0.2,0.1-0.4,0.2-0.5,0.3l-0.5-1c0.1-0.1,0.2-0.2,0.4-0.3
			c0.2-0.1,0.3-0.2,0.5-0.3c0.2-0.1,0.4-0.2,0.7-0.2c0.3-0.1,0.6-0.1,0.9-0.1c0.4,0,0.8,0.1,1.1,0.2c0.3,0.1,0.5,0.3,0.6,0.4
			c0.2,0.2,0.3,0.4,0.3,0.6c0.1,0.2,0.1,0.4,0.1,0.6v6.7H292.5z"/>
		<path class="st1" d="M303,65.3c0,0.9-0.3,1.6-0.8,2.1c-0.5,0.5-1.4,0.8-2.6,0.8c-1.2,0-2.1-0.2-2.8-0.7c-0.7-0.5-1-1.2-1-2.2
			c0-0.3,0.1-0.6,0.2-0.8c0.1-0.2,0.2-0.4,0.4-0.5c0.1-0.2,0.3-0.3,0.5-0.4c-0.4-0.1-0.7-0.4-0.9-0.8c-0.2-0.4-0.3-0.8-0.2-1.3
			c0-0.7,0.2-1.2,0.6-1.5c0.4-0.3,0.9-0.5,1.5-0.5c0.4,0,0.8,0,1.1,0.1c0.4,0.1,0.7,0.2,1,0.3l-0.4,1.2c-0.5-0.2-0.9-0.3-1.2-0.2
			c-0.3,0.1-0.5,0.3-0.6,0.7c0,0.2,0,0.4,0.1,0.6c0.1,0.2,0.3,0.3,0.4,0.4c0.2,0.1,0.4,0.2,0.6,0.2c0.2,0.1,0.4,0.1,0.6,0.1v1.1
			c-0.2,0-0.3,0-0.5,0c-0.2,0-0.3,0.1-0.5,0.1c-0.1,0.1-0.3,0.2-0.4,0.3c-0.1,0.1-0.2,0.3-0.2,0.5c0,0.2,0,0.3,0,0.5
			c0,0.2,0.1,0.4,0.2,0.5c0.1,0.2,0.3,0.3,0.5,0.4c0.2,0.1,0.5,0.2,0.9,0.2c0.3,0,0.5,0,0.7-0.1c0.2-0.1,0.3-0.2,0.4-0.4
			c0.1-0.2,0.2-0.3,0.2-0.5c0-0.2,0.1-0.4,0.1-0.6v-5.3h2V65.3z"/>
		<path class="st1" d="M311.6,65.3c0,0.9-0.3,1.6-0.8,2.1c-0.5,0.5-1.4,0.8-2.7,0.8c-1.2,0-2.1-0.2-2.8-0.7c-0.7-0.5-1-1.2-1-2.2
			c0-0.3,0.1-0.6,0.2-0.8c0.1-0.2,0.2-0.4,0.4-0.5c0.1-0.2,0.3-0.3,0.5-0.4c-0.4-0.1-0.7-0.4-0.9-0.8c-0.2-0.4-0.3-0.8-0.2-1.3
			c0-0.7,0.2-1.2,0.6-1.5c0.4-0.3,0.9-0.5,1.5-0.5c0.4,0,0.8,0,1.1,0.1c0.4,0.1,0.7,0.2,1,0.3l-0.4,1.2c-0.5-0.2-0.9-0.3-1.2-0.2
			c-0.3,0.1-0.5,0.3-0.6,0.7c0,0.2,0,0.4,0.1,0.6c0.1,0.2,0.3,0.3,0.5,0.4c0.2,0.1,0.4,0.2,0.6,0.2c0.2,0.1,0.4,0.1,0.6,0.1v1.1
			c-0.2,0-0.3,0-0.5,0c-0.2,0-0.3,0.1-0.5,0.1c-0.1,0.1-0.3,0.2-0.4,0.3c-0.1,0.1-0.2,0.3-0.2,0.5c0,0.2,0,0.3,0,0.5
			c0,0.2,0.1,0.4,0.2,0.5c0.1,0.2,0.3,0.3,0.5,0.4c0.2,0.1,0.5,0.2,0.9,0.2c0.3,0,0.5,0,0.7-0.1c0.2-0.1,0.3-0.2,0.4-0.4
			c0.1-0.2,0.2-0.3,0.2-0.5c0-0.2,0-0.4,0-0.6v-5.3h2.1V65.3z"/>
		<rect x="309.5" y="55.7" class="st1" width="2" height="2.4"/>
		<path class="st1" d="M320.8,63.9c0,0.6-0.1,1.2-0.3,1.7c-0.2,0.5-0.4,1-0.8,1.4c-0.3,0.4-0.8,0.7-1.3,0.9
			c-0.5,0.2-1.1,0.3-1.8,0.3c-0.7,0-1.3-0.1-1.8-0.4c-0.5-0.3-0.9-0.6-1.2-1.1c-0.3-0.4-0.5-1-0.7-1.5c-0.1-0.6-0.2-1.2-0.1-1.9h3.9
			v1.3h-1.9c0,0.6,0.2,1.2,0.6,1.6c0.4,0.4,0.9,0.6,1.4,0.6c0.7,0,1.2-0.3,1.5-0.8c0.3-0.5,0.4-1.1,0.4-2c0-0.4,0-0.8-0.1-1.2
			c-0.1-0.4-0.2-0.7-0.4-0.9c-0.2-0.3-0.4-0.5-0.7-0.6c-0.3-0.2-0.6-0.2-1-0.2c-0.4,0-0.8,0.1-1.1,0.4c-0.3,0.2-0.6,0.6-0.7,1
			l-1.9-0.3c0.1-0.3,0.3-0.7,0.5-1c0.2-0.3,0.5-0.6,0.8-0.9c0.3-0.2,0.7-0.4,1.1-0.6c0.4-0.2,0.9-0.2,1.5-0.2c0.7,0,1.3,0.1,1.8,0.3
			c0.5,0.2,0.9,0.5,1.3,0.9c0.3,0.4,0.6,0.8,0.8,1.4C320.7,62.7,320.8,63.3,320.8,63.9"/>
		<path class="st1" d="M329.1,65.3c0,0.9-0.3,1.6-0.8,2.1c-0.5,0.5-1.4,0.8-2.7,0.8c-1.2,0-2.1-0.2-2.8-0.7c-0.7-0.5-1-1.2-1-2.2
			c0-0.3,0.1-0.6,0.2-0.8c0.1-0.2,0.2-0.4,0.4-0.5c0.1-0.2,0.3-0.3,0.5-0.4c-0.4-0.1-0.7-0.4-0.9-0.8c-0.2-0.4-0.3-0.8-0.2-1.3
			c0-0.7,0.2-1.2,0.6-1.5c0.4-0.3,0.9-0.5,1.5-0.5c0.4,0,0.8,0,1.1,0.1c0.4,0.1,0.7,0.2,1,0.3l-0.4,1.2c-0.5-0.2-0.9-0.3-1.2-0.2
			c-0.3,0.1-0.5,0.3-0.6,0.7c0,0.2,0,0.4,0.1,0.6c0.1,0.2,0.3,0.3,0.5,0.4c0.2,0.1,0.4,0.2,0.6,0.2c0.2,0.1,0.4,0.1,0.6,0.1v1.1
			c-0.2,0-0.3,0-0.5,0c-0.2,0-0.3,0.1-0.5,0.1c-0.1,0.1-0.3,0.2-0.4,0.3c-0.1,0.1-0.2,0.3-0.2,0.5c0,0.2,0,0.3,0,0.5
			c0,0.2,0.1,0.4,0.2,0.5c0.1,0.2,0.3,0.3,0.5,0.4c0.2,0.1,0.5,0.2,0.9,0.2c0.3,0,0.5,0,0.7-0.1c0.2-0.1,0.3-0.2,0.4-0.4
			c0.1-0.2,0.2-0.3,0.2-0.5c0-0.2,0-0.4,0-0.6v-5.3h2.1V65.3z"/>
		<path class="st2" d="M73.1,66.7c-0.2,0.3-0.5,0.6-0.8,0.8c-0.3,0.2-0.6,0.4-1,0.5c-0.4,0.1-0.8,0.2-1.2,0.2
			c-0.7,0-1.3-0.2-1.8-0.5c-0.5-0.4-0.7-0.8-0.7-1.4c0-0.2,0-0.4,0.1-0.5l1.3-5.9h1.1l-1.2,5.9c0,0.1,0,0.1,0,0.2c0,0.1,0,0.1,0,0.2
			c0,0.9,0.5,1.3,1.5,1.3c1.2,0,2-0.6,2.2-1.7l1.2-5.9h1.1l-1.3,5.9C73.5,66.1,73.4,66.4,73.1,66.7"/>
		<path class="st2" d="M80.6,65.6c-0.2,0.8-0.6,1.4-1.2,1.9c-0.6,0.4-1.4,0.7-2.2,0.7c-0.8,0-1.4-0.2-1.8-0.5
			c-0.4-0.3-0.7-0.8-0.7-1.5c0-0.2,0-0.5,0.1-0.7H76c-0.1,0.2-0.1,0.3-0.1,0.5c0,0.4,0.1,0.7,0.4,0.9c0.3,0.2,0.6,0.3,1,0.3
			c0.5,0,1-0.2,1.4-0.5c0.5-0.3,0.7-0.8,0.7-1.3c0-0.7-0.5-1.2-1.6-1.4c-1.4-0.3-2.1-0.9-2.1-1.7c0-0.1,0-0.1,0-0.2
			c0-0.1,0-0.1,0-0.2c0.2-0.7,0.5-1.2,1.2-1.6c0.6-0.4,1.3-0.6,2.1-0.6c0.7,0,1.3,0.2,1.7,0.6c0.4,0.4,0.6,0.9,0.5,1.6h-1.1
			c0.1-0.4,0-0.7-0.3-1c-0.3-0.3-0.6-0.4-1-0.4c-0.2,0-0.4,0-0.7,0.1c-0.2,0.1-0.4,0.2-0.6,0.3c-0.2,0.1-0.3,0.3-0.4,0.5
			c-0.1,0.2-0.2,0.4-0.2,0.6c0,0.3,0.2,0.6,0.5,0.8c0.3,0.1,0.7,0.3,1.3,0.4c1.3,0.3,1.9,0.9,1.9,1.9c0,0.1,0,0.1,0,0.2
			C80.7,65.5,80.6,65.6,80.6,65.6"/>
		<polygon class="st2" points="76.4,58.8 76.6,58 82.1,58 82,58.8 		"/>
		<path class="st2" d="M88.5,64.1H88l-0.3,1.6c-0.1,0.4-0.2,0.7-0.4,1c-0.2,0.3-0.5,0.6-0.8,0.8c-0.3,0.2-0.6,0.4-1,0.5
			c-0.4,0.1-0.8,0.2-1.2,0.2c-0.7,0-1.3-0.2-1.8-0.5c-0.4-0.4-0.7-0.8-0.7-1.4c0-0.2,0-0.4,0.1-0.5l1.3-5.9h1.1l-1.2,5.9
			c0,0.1,0,0.1,0,0.2c0,0.1,0,0.1,0,0.2c0,0.9,0.5,1.3,1.5,1.3c1.3,0,2-0.6,2.2-1.7l0.3-1.5h-2.2l0.4-1.6h1.1L86,63.3h1.1l0.8-3.5
			h1.1l-0.8,3.5h1.1L88.5,64.1z"/>
		<polygon class="st2" points="85.8,58.8 86.2,57.1 87.3,57.1 87.1,58 90.6,58 90.4,58.8 		"/>
		<path class="st2" d="M93.3,68.1l1.2-5.7c0.1-0.2,0.1-0.5,0.1-0.7c0-0.8-0.4-1.2-1.3-1.2c-0.6,0-1.1,0.2-1.6,0.6
			c-0.5,0.4-0.8,0.9-0.9,1.4l-1.2,5.6h-1.1l1.6-7.4c0-0.1,0-0.1,0-0.1c0,0,0-0.1,0-0.1c0-0.2-0.1-0.5-0.4-0.7H91
			c0.2,0.2,0.3,0.4,0.2,0.7l-0.1,0.4c0.7-0.8,1.6-1.2,2.7-1.2c1.3,0,1.9,0.6,1.9,1.7c0,0.1,0,0.2,0,0.4c0,0.1,0,0.3-0.1,0.4
			l-1.2,5.9H93.3z"/>
		<path class="st2" d="M101.5,56.2c-0.1,0.3-0.4,0.6-1,0.9c-0.6,0.3-0.9,0.7-1,1l-1.9,9.1h1l-0.8,0.8h-1.5l2.2-10.3
			c0.1-0.3,0.4-0.6,0.9-0.9c0.6-0.2,0.9-0.5,0.9-0.8c0-0.2,0-0.4-0.2-0.6c-0.2-0.2-0.4-0.2-0.7-0.2c-0.3,0-0.6,0.1-0.9,0.3
			c-0.3,0.2-0.4,0.4-0.5,0.7h-1.1c0.1-0.5,0.4-0.9,0.9-1.3c0.6-0.4,1.1-0.5,1.7-0.5c0.6,0,1,0.1,1.4,0.4c0.4,0.2,0.6,0.6,0.6,1
			C101.5,56,101.5,56.1,101.5,56.2"/>
		<path class="st2" d="M104,68.1c-0.2-0.2-0.3-0.4-0.2-0.7l0.1-0.4c-0.6,0.8-1.4,1.2-2.5,1.2c-0.6,0-1.1-0.2-1.5-0.5
			c-0.4-0.3-0.6-0.8-0.6-1.4c0-0.2,0-0.5,0.1-0.7l1.2-5.8h1.1l-1.2,5.6c-0.1,0.2-0.1,0.4-0.1,0.6c0,0.9,0.5,1.4,1.5,1.4
			c0.6,0,1-0.2,1.5-0.6c0.4-0.4,0.7-0.8,0.8-1.4l1.2-5.6h1.1l-1.6,7.4c0,0.1,0,0.2,0,0.3c0,0.2,0.1,0.5,0.4,0.7H104z"/>
		<path class="st2" d="M110.6,68.1l1.3-5.9c0-0.1,0-0.1,0-0.2c0-0.1,0-0.1,0-0.2c0-0.9-0.5-1.3-1.5-1.3c-0.9,0-1.6,0.4-2.1,1.1
			l0.7,0.6c-0.6,0.2-0.9,0.5-1,1l-1,4.8h-1.1l1-4.7c0.1-0.5,0.4-0.9,0.9-1.1l-0.7-0.6c0.3-0.5,0.7-1,1.4-1.4
			c0.7-0.4,1.4-0.6,2.2-0.6c0.8,0,1.3,0.2,1.8,0.5c0.5,0.3,0.7,0.8,0.7,1.4c0,0.2,0,0.3-0.1,0.5l-1.3,5.9H110.6z"/>
		<path class="st2" d="M117.7,68.1l1-4.7c-0.4,0.3-1.2,0.5-2.4,0.8c-1.1,0.2-1.7,0.8-1.8,1.7c-0.1,0.9,0.4,1.4,1.6,1.4
			c0.3,0,0.6,0,0.8-0.1l-0.8,0.9c-0.1,0-0.2,0-0.3,0c-0.1,0-0.2,0-0.3,0c-0.7,0-1.3-0.2-1.7-0.5c-0.4-0.3-0.6-0.8-0.6-1.3
			c0-0.2,0-0.4,0.1-0.5c0.1-0.6,0.5-1.2,1-1.6c0.5-0.4,1.1-0.7,1.8-0.9c0.5-0.1,0.9-0.2,1.2-0.3c0.3-0.1,0.5-0.1,0.6-0.2
			c0.7-0.3,1.1-0.7,1.1-1.3c0-0.3-0.1-0.6-0.4-0.8c-0.2-0.2-0.6-0.3-1-0.3c-0.5,0-0.9,0.1-1.3,0.4c-0.4,0.3-0.6,0.6-0.7,1h-1.3
			c0.1-0.3,0.3-0.6,0.5-0.9c0.2-0.3,0.5-0.5,0.8-0.7c0.3-0.2,0.6-0.3,1-0.5c0.4-0.1,0.7-0.2,1.1-0.2c0.7,0,1.3,0.2,1.7,0.5
			c0.4,0.3,0.7,0.8,0.7,1.3c0,0.1,0,0.1,0,0.2c0,0.1,0,0.2,0,0.2l-1.3,6.2H117.7z"/>
		<polygon class="st2" points="117,71.6 117.4,69.8 116.5,69.8 116.7,68.9 118.6,68.9 118.1,71.6 		"/>
		<polygon class="st2" points="119.7,58.8 120.1,56.8 121.2,56.8 120.8,58.8 		"/>
		<path class="st2" d="M126.2,66.8c-0.2,0.3-0.4,0.5-0.7,0.8c-0.3,0.2-0.6,0.4-0.9,0.5c-0.3,0.1-0.7,0.2-1,0.2c-1,0-1.7-0.4-2.1-1.3
			l-0.1,0.5c-0.1,0.3-0.2,0.6-0.5,0.7h-1.3c0.4-0.3,0.7-0.6,0.8-1l1.6-7.4h1.1l-1.2,5.6c0,0.1,0,0.3,0,0.3c0,0.5,0.2,0.9,0.5,1.2
			c0.4,0.3,0.7,0.5,1.1,0.5c0.5,0,0.9-0.2,1.3-0.5c0.4-0.3,0.6-0.7,0.7-1.3l1.2-5.9h1.1l-1.3,6C126.5,66.2,126.3,66.5,126.2,66.8"/>
		<path class="st2" d="M131.9,56.2c-0.3,0.2-0.5,0.5-0.5,0.9l-2.1,10.2h1l-0.8,0.8H128l2.4-11.3c0.1-0.5,0.4-0.8,0.8-0.9H128
			l0.8-0.9h4.2l-0.2,0.9C132.5,55.9,132.2,56,131.9,56.2"/>
		<path class="st2" d="M135.5,68.1l1.2-5.7c0.1-0.2,0.1-0.5,0.1-0.7c0-0.8-0.4-1.2-1.3-1.2c-0.6,0-1.1,0.2-1.6,0.6
			c-0.5,0.4-0.8,0.9-0.9,1.4l-1.2,5.6h-1.1l1.6-7.4c0-0.1,0-0.1,0-0.1c0,0,0-0.1,0-0.1c0-0.2-0.1-0.5-0.4-0.7h1.3
			c0.2,0.2,0.3,0.4,0.2,0.7l-0.1,0.4c0.7-0.8,1.6-1.2,2.7-1.2c1.3,0,1.9,0.6,1.9,1.7c0,0.1,0,0.2,0,0.4c0,0.1,0,0.3-0.1,0.4
			l-1.2,5.9H135.5z"/>
		<path class="st2" d="M143.8,66.7c-0.2,0.3-0.5,0.6-0.8,0.8c-0.3,0.2-0.7,0.4-1,0.5c-0.4,0.1-0.8,0.2-1.2,0.2
			c-0.8,0-1.4-0.2-1.8-0.5c-0.5-0.3-0.7-0.8-0.7-1.4c0-0.2,0-0.4,0.1-0.6l0.1-0.6c0.1-0.5,0.3-0.9,0.7-1.2c0.4-0.3,0.8-0.5,1.3-0.6
			c-0.9,0-1.3-0.5-1.3-1.3c0-0.6,0.3-1.2,0.8-1.6c0.5-0.4,1.1-0.7,1.7-0.7h0.9l0.4,0.9h-1.1c-0.9,0-1.4,0.4-1.6,1.1
			c-0.1,0.4,0.1,0.7,0.4,0.9c0.3,0.2,0.6,0.2,1.1,0.2l0.7,0l-0.2,0.9h-0.7c-0.5,0-0.9,0.1-1.3,0.4c-0.4,0.3-0.6,0.6-0.7,1l-0.1,0.5
			c0,0.2-0.1,0.3-0.1,0.5c0,0.8,0.5,1.3,1.5,1.3c1.2,0,2-0.6,2.2-1.7l1.2-5.9h1.1l-1.3,5.9C144.2,66.1,144,66.4,143.8,66.7"/>
		<path class="st2" d="M150.9,66.7c-0.2,0.3-0.5,0.6-0.8,0.8c-0.3,0.2-0.6,0.4-1,0.5c-0.4,0.1-0.8,0.2-1.2,0.2
			c-0.8,0-1.4-0.2-1.8-0.5c-0.5-0.4-0.7-0.8-0.7-1.4c0-0.2,0-0.4,0.1-0.5l1.3-5.9h1.1l-1.2,5.9c0,0.1,0,0.1,0,0.2c0,0.1,0,0.1,0,0.2
			c0,0.9,0.5,1.3,1.5,1.3c1.2,0,2-0.6,2.2-1.7l1.8-8.4h1.1l-1.8,8.4C151.3,66.1,151.2,66.4,150.9,66.7"/>
		<path class="st2" d="M158.4,65.6c-0.2,0.8-0.6,1.4-1.2,1.9c-0.6,0.4-1.4,0.7-2.2,0.7c-0.8,0-1.4-0.2-1.8-0.5
			c-0.4-0.3-0.7-0.8-0.7-1.5c0-0.2,0-0.5,0.1-0.7h1.2c-0.1,0.2-0.1,0.3-0.1,0.5c0,0.4,0.1,0.7,0.4,0.9c0.3,0.2,0.6,0.3,1,0.3
			c0.5,0,1-0.2,1.4-0.5c0.5-0.3,0.7-0.8,0.7-1.3c0-0.7-0.5-1.2-1.6-1.4c-1.4-0.3-2.1-0.9-2.1-1.7c0-0.1,0-0.1,0-0.2
			c0-0.1,0-0.1,0-0.2c0.2-0.7,0.5-1.2,1.1-1.6c0.6-0.4,1.3-0.6,2.1-0.6c0.7,0,1.3,0.2,1.8,0.6c0.4,0.4,0.6,0.9,0.5,1.6h-1.1
			c0.1-0.4,0-0.7-0.3-1c-0.3-0.3-0.6-0.4-1-0.4c-0.2,0-0.5,0-0.7,0.1c-0.2,0.1-0.4,0.2-0.6,0.3c-0.2,0.1-0.3,0.3-0.4,0.5
			c-0.1,0.2-0.2,0.4-0.2,0.6c0,0.3,0.2,0.6,0.5,0.8c0.2,0.1,0.7,0.3,1.3,0.4c1.3,0.3,1.9,0.9,1.9,1.9c0,0.1,0,0.1,0,0.2
			C158.5,65.5,158.4,65.6,158.4,65.6"/>
		<path class="st2" d="M161.4,67h-2.3l0.3-1.6h1.1l-0.2,0.7h1.7L161.4,67z M162.4,62.4h-2.3l0.3-1.6h1.1l-0.1,0.7h1.7L162.4,62.4z"
			/>
		<path class="st2" d="M167.7,68.1l1.2-5.9c0-0.1,0-0.1,0-0.2c0-0.1,0-0.1,0-0.2c0-0.9-0.5-1.3-1.5-1.3c-0.9,0-1.6,0.4-2.1,1.1
			l0.7,0.6c-0.6,0.2-0.9,0.5-1,1l-1,4.8h-1.1l1-4.7c0.1-0.5,0.4-0.9,0.9-1.1l-0.7-0.6c0.3-0.5,0.7-1,1.4-1.4
			c0.7-0.4,1.4-0.6,2.2-0.6c0.7,0,1.3,0.2,1.8,0.5c0.5,0.3,0.7,0.8,0.7,1.4c0,0.2,0,0.3-0.1,0.5l-1.3,5.9H167.7z"/>
		<polygon class="st2" points="167.5,58.8 167.8,57.1 169,57.1 168.8,58 172.2,58 172.1,58.8 		"/>
		<path class="st2" d="M175.2,68.1c-0.2-0.2-0.3-0.4-0.2-0.7l0.1-0.4c-0.6,0.8-1.4,1.2-2.5,1.2c-0.6,0-1.1-0.2-1.5-0.5
			c-0.4-0.3-0.6-0.8-0.6-1.4c0-0.2,0-0.5,0.1-0.7l1.2-5.8h1.1l-1.2,5.6c-0.1,0.2-0.1,0.4-0.1,0.6c0,0.9,0.5,1.4,1.5,1.4
			c0.6,0,1-0.2,1.5-0.6c0.4-0.4,0.7-0.8,0.8-1.4l1.2-5.6h1.1l-1.6,7.4c0,0.1,0,0.2,0,0.3c0,0.2,0.1,0.5,0.4,0.7H175.2z"/>
		<path class="st2" d="M181.7,67.6c-0.6,0.4-1.3,0.6-2.1,0.6c-0.7,0-1.3-0.2-1.7-0.5c-0.4-0.3-0.6-0.7-0.6-1.3c0-0.2,0-0.3,0.1-0.5
			l1.3-6.1h1.1l-1.3,6c0,0.1,0,0.1,0,0.2c0,0.1,0,0.1,0,0.2c0,0.7,0.4,1.1,1.3,1.1c1.1,0,1.7-0.5,2-1.5l0.5-2.2c0-0.1,0-0.1,0-0.2
			c0,0,0-0.1,0-0.1c0-0.7-0.5-1.1-1.4-1.1h-0.7l0.2-0.8h0.7c1.2,0,1.8-0.4,2-1.1l0.1-0.5h1.1l-0.1,0.6c-0.2,0.9-0.9,1.4-2.1,1.5
			c0.5,0,0.8,0.1,1.1,0.4c0.3,0.2,0.4,0.5,0.4,0.9c0,0.1,0,0.2,0,0.4l-0.5,2.4C182.7,66.6,182.3,67.2,181.7,67.6"/>
		<polygon class="st2" points="178.8,58.8 178.9,58 183.4,58 183.6,57 184.7,57 184.3,58.8 		"/>
		<path class="st2" d="M190.1,63.9c-0.6,2.8-1.9,4.3-3.9,4.3c-0.8,0-1.3-0.2-1.8-0.5c-0.4-0.4-0.6-0.8-0.6-1.5V66c0-0.1,0-0.1,0-0.2
			h1.1c-0.1,1,0.4,1.6,1.4,1.6c1.3,0,2.2-1.1,2.7-3.4c0.1-0.6,0.2-1.2,0.2-1.7c0-1.2-0.5-1.7-1.4-1.7c-0.9,0-1.5,0.4-1.9,1.3h-1.2
			c0.1-0.3,0.3-0.6,0.5-0.9c0.2-0.3,0.5-0.5,0.8-0.7c0.3-0.2,0.6-0.3,0.9-0.5c0.3-0.1,0.7-0.2,1-0.2c1.6,0,2.3,0.8,2.3,2.5
			c0,0.3,0,0.5-0.1,0.8C190.2,63.3,190.1,63.6,190.1,63.9"/>
		<polygon class="st2" points="185.4,58.8 185.5,58 191.1,58 190.9,58.8 		"/>
		<path class="st2" d="M195.3,68.1l1.3-6.3c0-0.1,0-0.1,0-0.2c0-0.1,0-0.1,0-0.2c0-0.4-0.1-0.7-0.4-0.8c-0.4,0.5-0.9,0.8-1.5,0.8
			c-0.6,0-1-0.3-1.2-0.8c-0.4,0.1-0.7,0.5-0.9,1.2l-1,4.4l2.6-3.1h-1.2l0.5-0.8h2l-0.2,0.8l-4.1,4.9h-1.1l1.4-6.4
			c0.1-0.6,0.4-1.1,0.9-1.4c0.5-0.4,1-0.6,1.6-0.6c0,0.2,0,0.4,0.1,0.6c0.1,0.2,0.4,0.3,0.6,0.3c0.3,0,0.6-0.1,0.8-0.3
			c0.2-0.2,0.3-0.4,0.4-0.6c0.5,0,0.9,0.1,1.2,0.4c0.3,0.3,0.5,0.6,0.5,1.1c0,0.1,0,0.1,0,0.2c0,0.1,0,0.2,0,0.2l-1.4,6.4H195.3z"/>
	</g>
	<g>
		<g>
			<path class="st0" d="M30.8,18.4c0.1-0.1,1.9-2,0-3.9l-1.9-1.9l-6.2,6.2l3.9,3.9L30.8,18.4z M37.9,25.4c0.1-0.1,1.9-2,0-3.9
				l-1.9-1.9l-6.2,6.2l3.9,3.9L37.9,25.4z M26.6,24.4l-3.9,3.9l1.9,1.9l4.3,4.3l3.9-3.9l-4.3-4.3L26.6,24.4z M25.7,23.5l-3.9-3.9
				l-6.2,6.2l3.9,3.9l1.9-1.9L25.7,23.5z M26.6,38.4l-3.9,3.9l6.2,6.2l1.9-1.9c1.9-1.9,0.2-3.7,0-3.9L26.6,38.4z M12.9,28.6
				c-1.9,1.9-0.2,3.7,0,3.9l4.3,4.3l3.9-3.9l-6.2-6.2L12.9,28.6 M29.7,35.3l6.2,6.2l1.9-1.9c1.9-1.9,0.2-3.7,0-3.9l-4.3-4.3
				L29.7,35.3z M22.3,33.3C22.3,33.3,22.3,33.3,22.3,33.3L18,37.6l3.9,3.9l6.2-6.2l-3.9-3.9L22.3,33.3"/>
			<path class="st1" d="M27.3,55.2c-13.6,0-24.6-11-24.6-24.6C2.7,17,13.8,6,27.3,6c13.6,0,24.6,11,24.6,24.6
				C51.9,44.1,40.9,55.2,27.3,55.2z M27.3,9.6c-11.6,0-21,9.4-21,21c0,11.6,9.4,21,21,21c11.6,0,21-9.4,21-21
				C48.3,19,38.9,9.6,27.3,9.6z"/>
		</g>
	</g>
</g>
</svg>
